<svg width="205" height="68" viewBox="0 0 205 68" fill="none" xmlns="http://www.w3.org/2000/svg">
<g id="Apple download button">
<path id="Union" d="M14.9317 0.128618C15.5536 0.125246 16.1696 0.125246 16.7931 0.125246H187.831C188.443 0.125246 189.063 0.125077 189.674 0.128449C190.097 0.131065 190.529 0.138177 190.955 0.145196C191.051 0.146774 191.147 0.148348 191.242 0.149864C192.381 0.16239 193.518 0.262002 194.642 0.447817C195.771 0.638223 196.864 0.994564 197.886 1.50507C199.931 2.54669 201.595 4.19784 202.645 6.22628C203.158 7.2369 203.513 8.319 203.698 9.43547C203.887 10.5514 203.993 11.6798 204.013 12.8113C204.02 13.3284 204.02 13.8471 204.02 14.3643C204.033 14.9752 204.033 15.5876 204.033 16.2053V51.4952C204.033 52.1178 204.033 52.727 204.02 53.3396C204.02 53.8632 204.02 54.3704 204.013 54.8941C203.993 56.0255 203.887 57.1539 203.697 58.2697C203.513 59.3869 203.158 60.4697 202.645 61.4808C202.123 62.487 201.445 63.4056 200.636 64.2028C199.833 65.0069 198.904 65.6779 197.886 66.1903C196.864 66.7022 195.771 67.0607 194.642 67.254C193.518 67.4383 192.381 67.538 191.242 67.5521C190.724 67.5636 190.192 67.5702 189.674 67.5702C189.063 67.5735 188.442 67.5735 187.831 67.5735H16.7931C16.1696 67.5735 15.5536 67.5735 14.9319 67.5702C14.4113 67.5702 13.8948 67.5636 13.3694 67.5521C12.2278 67.5372 11.089 67.4376 9.9624 67.254C8.83747 67.062 7.74801 66.7035 6.73053 66.1903C5.71187 65.6782 4.78273 65.0071 3.97862 64.2028C3.16705 63.4087 2.49057 62.4895 1.97546 61.4808C1.4582 60.4704 1.09985 59.3876 0.912852 58.2697C0.723568 57.1541 0.621706 56.0255 0.608179 54.8943C0.597368 54.5361 0.593154 54.1856 0.588907 53.8325C0.586943 53.6691 0.584971 53.5052 0.582336 53.3396V14.3643C0.585002 14.1988 0.586989 14.0332 0.588976 13.8675C0.5932 13.5154 0.597427 13.163 0.608179 12.8114C0.621693 11.6801 0.723555 10.5514 0.912852 9.43564C1.10035 8.31841 1.45868 7.23611 1.97546 6.22611C2.49081 5.2142 3.1672 4.29126 3.97862 3.49277C4.78579 2.69197 5.71432 2.02135 6.73053 1.50524C7.74802 0.993478 8.83759 0.637042 9.9624 0.447986C11.0888 0.262958 12.2277 0.163352 13.3694 0.150033C13.477 0.14834 13.5843 0.146584 13.6913 0.144832C14.1066 0.138033 14.5179 0.1313 14.9317 0.128618Z" fill="black"/>
<path id="Vector" d="M14.9396 66.0981C14.4215 66.0981 13.9161 66.0915 13.4021 66.08C12.3375 66.0663 11.2753 65.9744 10.2243 65.8052C9.24432 65.6377 8.29499 65.3263 7.40762 64.8811C6.52836 64.4397 5.7264 63.8609 5.03247 63.1669C4.32844 62.4811 3.74229 61.6857 3.29726 60.8121C2.84738 59.9329 2.53603 58.9905 2.37406 58.0178C2.19921 56.9725 2.10464 55.9156 2.09115 54.8561C2.08027 54.5005 2.06616 53.3166 2.06616 53.3166V14.364C2.06616 14.364 2.08112 13.1982 2.09115 12.8556C2.10411 11.7978 2.19817 10.7426 2.37253 9.69898C2.53482 8.72354 2.84643 7.77842 3.29658 6.89634C3.7399 6.02338 4.32272 5.22732 5.02244 4.53902C5.72141 3.84417 6.52597 3.26239 7.40677 2.81487C8.29212 2.37123 9.23967 2.06206 10.2177 1.89774C11.2721 1.7268 12.338 1.63441 13.4064 1.62137L14.9404 1.60046H189.666L191.218 1.62188C192.277 1.63435 193.333 1.72601 194.378 1.89606C195.366 2.06249 196.323 2.37386 197.219 2.81993C198.983 3.72177 200.419 5.14859 201.325 6.90038C201.768 7.77642 202.074 8.71388 202.235 9.68094C202.411 10.7331 202.51 11.7966 202.53 12.863C202.535 13.3405 202.535 13.8535 202.535 14.364C202.549 14.9964 202.549 15.5982 202.549 16.205V51.495C202.549 52.1076 202.549 52.7054 202.535 53.308C202.535 53.8564 202.535 54.3587 202.528 54.8757C202.508 55.9231 202.411 56.9677 202.238 58.0011C202.079 58.9809 201.769 59.9306 201.32 60.817C200.871 61.6811 200.289 62.4696 199.593 63.1536C198.898 63.8513 198.095 64.4335 197.214 64.8778C196.321 65.3263 195.365 65.6388 194.378 65.8048C193.327 65.9751 192.265 66.067 191.2 66.0798C190.691 66.0916 190.183 66.0977 189.674 66.0979L187.831 66.1013L14.9396 66.0981Z" fill="black"/>
<path id="Vector_2" d="M42.6938 34.357C42.712 32.9496 43.089 31.5697 43.7895 30.3456C44.49 29.1215 45.4913 28.093 46.7002 27.3559C45.9322 26.268 44.919 25.3727 43.7411 24.7412C42.5632 24.1096 41.253 23.7591 39.9146 23.7175C37.0595 23.4203 34.2918 25.4118 32.8368 25.4118C31.3539 25.4118 29.1139 23.747 26.7019 23.7963C25.1416 23.8462 23.6211 24.2962 22.2883 25.1023C20.9555 25.9084 19.856 27.0431 19.0969 28.3959C15.8088 34.0422 18.2615 42.34 21.4114 46.9039C22.9873 49.1388 24.8289 51.6351 27.2389 51.5465C29.5971 51.4496 30.4778 50.0551 33.3246 50.0551C36.1448 50.0551 36.9711 51.5465 39.4299 51.4902C41.9605 51.4496 43.5547 49.2455 45.0754 46.9896C46.2076 45.3972 47.0789 43.6373 47.6569 41.775C46.1868 41.1583 44.9322 40.126 44.0496 38.8069C43.167 37.4877 42.6954 35.9401 42.6938 34.357ZM38.0495 20.7159C39.4293 19.0732 40.109 16.9618 39.9444 14.83C37.8364 15.0496 35.8893 16.0488 34.4909 17.6285C33.8072 18.4002 33.2835 19.298 32.9499 20.2706C32.6162 21.2431 32.4791 22.2714 32.5464 23.2965C33.6008 23.3073 34.6438 23.0806 35.5971 22.6336C36.5503 22.1866 37.3889 21.5309 38.0495 20.7159ZM72.5037 45.889H64.4561L62.5235 51.5486H59.1146L66.7374 30.6092H70.2788L77.9014 51.5486H74.4346L72.5037 45.889ZM65.2895 43.2772H71.6686L68.5239 34.0921H68.4358L65.2895 43.2772ZM94.3636 43.9163C94.3636 48.6603 91.8033 51.7082 87.9398 51.7082C86.9611 51.759 85.9877 51.5355 85.1311 51.0631C84.2746 50.5907 83.5695 49.8887 83.0965 49.0373H83.0234V56.5989H79.8638V36.2821H82.9222V38.8214H82.9804C83.4751 37.9741 84.1921 37.2757 85.0551 36.8005C85.9182 36.3252 86.895 36.0909 87.8817 36.1225C91.7883 36.1225 94.3636 39.1853 94.3636 43.9161V43.9163ZM91.1159 43.9163C91.1159 40.8255 89.5055 38.7934 87.0482 38.7934C84.634 38.7934 83.0103 40.8681 83.0103 43.9161C83.0103 46.9923 84.634 49.0523 87.0482 49.0523C89.5055 49.0523 91.1159 47.0351 91.1159 43.9161V43.9163ZM111.306 43.9163C111.306 48.6603 108.745 51.7082 104.882 51.7082C103.903 51.759 102.93 51.5354 102.073 51.063C101.217 50.5907 100.512 49.8886 100.039 49.0373H99.9655V56.5989H96.8059V36.2821H99.8642V38.8214H99.9223C100.417 37.9741 101.134 37.2757 101.997 36.8005C102.86 36.3252 103.837 36.0909 104.824 36.1225C108.73 36.1225 111.306 39.1853 111.306 43.9161V43.9163ZM108.058 43.9163C108.058 40.8255 106.447 38.7934 103.99 38.7934C101.576 38.7934 99.9523 40.8681 99.9523 43.9161C99.9523 46.9923 101.576 49.0523 103.99 49.0523C106.447 49.0523 108.058 47.0351 108.058 43.9161V43.9163ZM122.503 45.7145C122.737 47.7909 124.771 49.1543 127.55 49.1543C130.213 49.1543 132.13 47.7909 132.13 45.9185C132.13 44.2932 130.974 43.32 128.238 42.6531L125.501 41.9994C121.625 41.0706 119.825 39.2725 119.825 36.3545C119.825 32.7416 122.999 30.2602 127.507 30.2602C131.968 30.2602 135.027 32.7416 135.13 36.3545H131.94C131.749 34.2649 130.008 33.0035 127.462 33.0035C124.917 33.0035 123.175 34.2798 123.175 36.1371C123.175 37.6176 124.288 38.4887 127.009 39.1554L129.335 39.722C133.667 40.7379 135.467 42.4638 135.467 45.5264C135.467 49.444 132.32 51.8976 127.316 51.8976C122.634 51.8976 119.473 49.5015 119.269 45.7143L122.503 45.7145ZM142.286 32.6694V36.2821H145.213V38.7637H142.286V47.1799C142.286 48.4874 142.872 49.0967 144.159 49.0967C144.506 49.0906 144.853 49.0664 145.198 49.0241V51.4911C144.619 51.5982 144.031 51.6467 143.443 51.6357C140.327 51.6357 139.111 50.475 139.111 47.5141V38.7637H136.873V36.2821H139.111V32.6694H142.286ZM146.908 43.9163C146.908 39.1128 149.761 36.0945 154.209 36.0945C158.672 36.0945 161.511 39.1128 161.511 43.9163C161.511 48.7328 158.687 51.7379 154.209 51.7379C149.732 51.7379 146.908 48.7328 146.908 43.9163ZM158.291 43.9163C158.291 40.6213 156.769 38.6764 154.209 38.6764C151.648 38.6764 150.128 40.6359 150.128 43.9163C150.128 47.2245 151.648 49.1543 154.209 49.1543C156.769 49.1543 158.291 47.2245 158.291 43.9163ZM164.116 36.2821H167.129V38.8806H167.202C167.406 38.069 167.886 37.3518 168.56 36.8496C169.234 36.3473 170.062 36.0905 170.905 36.1225C171.269 36.1212 171.632 36.1604 171.988 36.2393V39.1705C171.528 39.0311 171.048 38.9672 170.568 38.9811C170.109 38.9626 169.651 39.0429 169.227 39.2164C168.802 39.3898 168.42 39.6524 168.107 39.9861C167.794 40.3198 167.558 40.7167 167.414 41.1495C167.271 41.5823 167.224 42.0408 167.276 42.4935V51.5486H164.116V36.2821ZM186.555 47.0646C186.13 49.8361 183.409 51.7379 179.927 51.7379C175.449 51.7379 172.67 48.7624 172.67 43.9886C172.67 39.2001 175.464 36.0945 179.794 36.0945C184.053 36.0945 186.731 38.9959 186.731 43.6247V44.6983H175.859V44.8877C175.809 45.4496 175.88 46.0156 176.067 46.5481C176.255 47.0807 176.554 47.5677 176.946 47.9767C177.337 48.3857 177.812 48.7073 178.339 48.9203C178.866 49.1333 179.432 49.2327 180 49.212C180.747 49.2814 181.496 49.1099 182.137 48.723C182.777 48.3361 183.275 47.7544 183.555 47.0646H186.555ZM175.874 42.5083H183.57C183.598 42.0031 183.521 41.4976 183.343 41.0234C183.165 40.5492 182.89 40.1166 182.536 39.7528C182.181 39.3889 181.755 39.1017 181.283 38.9091C180.811 38.7165 180.304 38.6227 179.794 38.6336C179.28 38.6305 178.77 38.7286 178.294 38.9221C177.818 39.1156 177.385 39.4007 177.02 39.7609C176.656 40.1211 176.367 40.5494 176.17 41.0209C175.974 41.4925 175.873 41.998 175.874 42.5083ZM64.8935 14.8481C65.5559 14.8009 66.2207 14.9002 66.8397 15.1387C67.4588 15.3772 68.0168 15.7489 68.4734 16.2272C68.9301 16.7055 69.274 17.2783 69.4804 17.9043C69.6868 18.5304 69.7505 19.1941 69.667 19.8475C69.667 23.0618 67.9152 24.9095 64.8935 24.9095H61.2291V14.8479L64.8935 14.8481ZM62.8048 23.4865H64.7175C65.1909 23.5146 65.6646 23.4376 66.1041 23.2612C66.5436 23.0848 66.938 22.8134 67.2585 22.4667C67.5789 22.1201 67.8174 21.707 67.9566 21.2574C68.0958 20.8079 68.1321 20.3332 68.063 19.8679C68.1271 19.4045 68.0871 18.9328 67.9458 18.4865C67.8045 18.0402 67.5654 17.6305 67.2456 17.2866C66.9259 16.9427 66.5335 16.6733 66.0964 16.4975C65.6593 16.3217 65.1885 16.244 64.7175 16.2699H62.8048V23.4865ZM71.4469 21.1096C71.3987 20.6107 71.4563 20.1072 71.6158 19.6316C71.7753 19.156 72.0334 18.7186 72.3733 18.3477C72.7132 17.9768 73.1276 17.6804 73.5898 17.4776C74.052 17.2748 74.5518 17.17 75.0572 17.17C75.5626 17.17 76.0625 17.2748 76.5246 17.4776C76.9868 17.6804 77.4012 17.9768 77.7411 18.3477C78.0811 18.7186 78.3391 19.156 78.4986 19.6316C78.6581 20.1072 78.7157 20.6107 78.6675 21.1096C78.7167 21.6092 78.66 22.1135 78.5009 22.59C78.3419 23.0665 78.084 23.5047 77.744 23.8765C77.404 24.2482 76.9893 24.5453 76.5265 24.7486C76.0638 24.952 75.5633 25.057 75.0572 25.057C74.5511 25.057 74.0506 24.952 73.5879 24.7486C73.1252 24.5453 72.7104 24.2482 72.3704 23.8765C72.0304 23.5047 71.7725 23.0665 71.6135 22.59C71.4544 22.1135 71.3977 21.6092 71.4469 21.1096ZM77.1136 21.1096C77.1136 19.4637 76.368 18.5013 75.0598 18.5013C73.7464 18.5013 73.0076 19.4637 73.0076 21.1096C73.0076 22.7687 73.7465 23.7238 75.0598 23.7238C76.368 23.7238 77.1136 22.7621 77.1136 21.1096ZM88.2661 24.9093H86.6985L85.1163 19.3172H84.9968L83.4212 24.9093H81.8688L79.7585 17.3164H81.2909L82.6625 23.1102H82.7753L84.3494 17.3164H85.7988L87.3728 23.1102H87.4923L88.8571 17.3164H90.368L88.2661 24.9093ZM92.1428 17.3165H93.5973V18.5227H93.7102C93.9017 18.0894 94.2248 17.7262 94.6343 17.4837C95.0439 17.2412 95.5195 17.1315 95.9949 17.1698C96.3674 17.1421 96.7415 17.1978 97.0893 17.3328C97.4372 17.4679 97.7499 17.6788 98.0044 17.9501C98.2589 18.2213 98.4486 18.5458 98.5594 18.8996C98.6703 19.2534 98.6995 19.6274 98.6448 19.9939V24.9092H97.1339V20.3702C97.1339 19.1501 96.5992 18.5432 95.4818 18.5432C95.2289 18.5316 94.9764 18.5743 94.7417 18.6684C94.507 18.7626 94.2956 18.9059 94.122 19.0887C93.9483 19.2714 93.8166 19.4893 93.7358 19.7272C93.655 19.9652 93.627 20.2177 93.6538 20.4674V24.9093H92.1428V17.3165ZM101.052 14.3523H102.563V24.9093H101.052V14.3523ZM104.663 21.1096C104.615 20.6106 104.673 20.1071 104.832 19.6314C104.992 19.1557 105.25 18.7183 105.59 18.3473C105.93 17.9763 106.344 17.6799 106.807 17.4771C107.269 17.2742 107.769 17.1695 108.274 17.1695C108.78 17.1695 109.28 17.2742 109.742 17.4771C110.204 17.6799 110.619 17.9763 110.959 18.3473C111.299 18.7183 111.557 19.1557 111.716 19.6314C111.876 20.1071 111.933 20.6106 111.885 21.1096C111.934 21.6091 111.877 22.1133 111.718 22.5896C111.559 23.066 111.301 23.504 110.961 23.8756C110.621 24.2472 110.206 24.5442 109.743 24.7474C109.281 24.9506 108.78 25.0556 108.274 25.0556C107.768 25.0556 107.268 24.9506 106.805 24.7474C106.343 24.5442 105.928 24.2472 105.588 23.8756C105.248 23.504 104.99 23.066 104.831 22.5896C104.672 22.1133 104.615 21.6091 104.663 21.1096ZM110.33 21.1096C110.33 19.4637 109.585 18.5013 108.276 18.5013C106.963 18.5013 106.224 19.4637 106.224 21.1096C106.224 22.7687 106.963 23.7238 108.276 23.7238C109.585 23.7238 110.33 22.7621 110.33 21.1096ZM113.476 22.7621C113.476 21.3953 114.502 20.6073 116.323 20.4954L118.397 20.3768V19.7214C118.397 18.9194 117.862 18.4667 116.83 18.4667C115.986 18.4667 115.402 18.7737 115.234 19.3106H113.771C113.926 18.0064 115.163 17.17 116.899 17.17C118.819 17.17 119.901 18.1176 119.901 19.7214V24.9093H118.447V23.8423H118.327C118.085 24.2251 117.744 24.5371 117.34 24.7465C116.936 24.956 116.483 25.0553 116.028 25.0345C115.706 25.0676 115.381 25.0336 115.074 24.9346C114.767 24.8357 114.484 24.6739 114.243 24.4598C114.003 24.2457 113.81 23.984 113.678 23.6916C113.546 23.3992 113.477 23.0826 113.476 22.7621ZM118.397 22.1133V21.4784L116.527 21.597C115.473 21.6669 114.995 22.0227 114.995 22.692C114.995 23.3754 115.593 23.7732 116.414 23.7732C116.655 23.7974 116.899 23.7733 117.13 23.7023C117.361 23.6313 117.576 23.5149 117.76 23.3601C117.945 23.2052 118.097 23.015 118.206 22.8008C118.316 22.5866 118.381 22.3528 118.397 22.1133ZM121.887 21.1096C121.887 18.7103 123.13 17.1906 125.065 17.1906C125.543 17.1687 126.018 17.2823 126.434 17.5182C126.85 17.7541 127.189 18.1025 127.413 18.5227H127.525V14.3522H129.036V24.9092H127.589V23.7094H127.469C127.228 24.1268 126.877 24.4708 126.453 24.7044C126.03 24.9379 125.549 25.052 125.065 25.0343C123.117 25.0343 121.887 23.5143 121.887 21.1095V21.1096ZM123.448 21.1096C123.448 22.72 124.213 23.6892 125.493 23.6892C126.767 23.6892 127.554 22.7062 127.554 21.1161C127.554 19.5337 126.758 18.5367 125.493 18.5367C124.221 18.5367 123.448 19.5123 123.448 21.1096ZM135.287 21.1096C135.239 20.6107 135.297 20.1072 135.456 19.6316C135.616 19.156 135.874 18.7186 136.214 18.3477C136.554 17.9768 136.968 17.6804 137.43 17.4776C137.893 17.2748 138.392 17.17 138.898 17.17C139.403 17.17 139.903 17.2748 140.365 17.4776C140.827 17.6804 141.242 17.9768 141.582 18.3477C141.922 18.7186 142.18 19.156 142.339 19.6316C142.499 20.1072 142.556 20.6107 142.508 21.1096C142.557 21.6092 142.501 22.1135 142.341 22.59C142.182 23.0665 141.925 23.5047 141.585 23.8765C141.245 24.2482 140.83 24.5453 140.367 24.7486C139.904 24.952 139.404 25.057 138.898 25.057C138.392 25.057 137.891 24.952 137.428 24.7486C136.966 24.5453 136.551 24.2482 136.211 23.8765C135.871 23.5047 135.613 23.0665 135.454 22.59C135.295 22.1135 135.238 21.6092 135.287 21.1096ZM140.954 21.1096C140.954 19.4637 140.209 18.5013 138.9 18.5013C137.587 18.5013 136.848 19.4637 136.848 21.1096C136.848 22.7687 137.587 23.7238 138.9 23.7238C140.209 23.7238 140.954 22.7621 140.954 21.1096ZM144.535 17.3165H145.99V18.5227H146.103C146.294 18.0894 146.617 17.7262 147.027 17.4837C147.436 17.2412 147.912 17.1315 148.388 17.1698C148.76 17.1421 149.134 17.1978 149.482 17.3328C149.83 17.4679 150.143 17.6788 150.397 17.9501C150.651 18.2213 150.841 18.5458 150.952 18.8996C151.063 19.2534 151.092 19.6274 151.037 19.9939V24.9092H149.526V20.3702C149.526 19.1501 148.992 18.5432 147.874 18.5432C147.622 18.5316 147.369 18.5743 147.134 18.6684C146.9 18.7626 146.688 18.9059 146.515 19.0887C146.341 19.2714 146.209 19.4893 146.128 19.7272C146.048 19.9652 146.02 20.2177 146.046 20.4674V24.9093H144.536L144.535 17.3165ZM159.575 15.4261V17.3511H161.234V18.6132H159.575V22.5175C159.575 23.3128 159.905 23.6612 160.657 23.6612C160.85 23.6606 161.042 23.649 161.233 23.6265V24.8748C160.962 24.9229 160.687 24.9485 160.412 24.9513C158.731 24.9513 158.062 24.365 158.062 22.9012V18.6132H156.847V17.3509H158.062V15.4263L159.575 15.4261ZM163.297 14.3523H164.795V18.5367H164.914C165.115 18.0994 165.447 17.7341 165.865 17.4907C166.283 17.2473 166.766 17.1375 167.249 17.1764C167.619 17.1564 167.99 17.2178 168.334 17.3561C168.678 17.4945 168.987 17.7064 169.238 17.9768C169.49 18.2471 169.679 18.5693 169.791 18.9203C169.903 19.2713 169.935 19.6424 169.885 20.0072V24.9093H168.373V20.3768C168.373 19.1639 167.803 18.5498 166.736 18.5498C166.476 18.5287 166.215 18.5641 165.971 18.6536C165.726 18.7431 165.504 18.8844 165.321 19.0678C165.137 19.2511 164.996 19.472 164.908 19.7151C164.819 19.9581 164.785 20.2174 164.808 20.4748V24.9093H163.297V14.3523ZM178.695 22.8591C178.49 23.5531 178.045 24.1534 177.439 24.555C176.832 24.9565 176.103 25.1339 175.378 25.0559C174.874 25.0691 174.372 24.9733 173.909 24.7751C173.446 24.5769 173.031 24.2811 172.695 23.9083C172.358 23.5354 172.108 23.0943 171.96 22.6158C171.813 22.1372 171.772 21.6325 171.841 21.1368C171.774 20.6395 171.815 20.1338 171.963 19.6537C172.11 19.1737 172.359 18.7306 172.694 18.3544C173.028 17.9783 173.441 17.6778 173.903 17.4734C174.365 17.2691 174.865 17.1655 175.371 17.1698C177.501 17.1698 178.787 18.6132 178.787 20.9975V21.5204H173.381V21.6044C173.357 21.883 173.392 22.1635 173.484 22.4278C173.576 22.6921 173.723 22.9344 173.915 23.1392C174.107 23.344 174.34 23.5068 174.599 23.6171C174.858 23.7273 175.137 23.7827 175.419 23.7796C175.781 23.8226 176.147 23.7581 176.471 23.5942C176.796 23.4303 177.063 23.1744 177.241 22.8591H178.695ZM173.381 20.4122H177.247C177.266 20.1574 177.232 19.9014 177.145 19.6608C177.058 19.4201 176.922 19.2001 176.744 19.0149C176.567 18.8296 176.352 18.6833 176.114 18.5852C175.876 18.4871 175.621 18.4394 175.363 18.4453C175.102 18.442 174.842 18.4907 174.6 18.5884C174.358 18.6861 174.138 18.8309 173.954 19.0142C173.769 19.1975 173.623 19.4156 173.524 19.6557C173.426 19.8958 173.377 20.1531 173.381 20.4122Z" fill="white"/>
</g>
</svg>
