<svg width="204" height="68" viewBox="0 0 204 68" fill="none" xmlns="http://www.w3.org/2000/svg">
<g id="Google download button">
<g id="Vector">
<path d="M196.057 0.125244H7.67635C3.53202 0.125244 0.141113 3.91921 0.141113 8.55634V59.1426C0.141113 63.7797 3.53195 67.5737 7.67635 67.5737H196.057C200.201 67.5737 203.592 63.7797 203.592 59.1427V8.55634C203.592 3.91921 200.202 0.125244 196.057 0.125244Z" fill="black"/>
<path fill-rule="evenodd" clip-rule="evenodd" d="M7.67635 0.125244H196.057C200.202 0.125244 203.592 3.91921 203.592 8.55634V59.1427C203.592 63.7797 200.201 67.5737 196.057 67.5737H7.67635C3.53195 67.5737 0.141113 63.7797 0.141113 59.1426V8.55634C0.141113 3.91921 3.53202 0.125244 7.67635 0.125244Z" fill="black"/>
</g>
<path id="Vector_2" d="M195.201 66.5865H8.57252C4.51104 66.5865 1.18793 62.9047 1.18793 58.4048V9.31403C1.18793 4.814 4.51098 1.1322 8.57252 1.1322H195.201C199.263 1.1322 202.586 4.814 202.586 9.31403V58.4047C202.586 62.9047 199.263 66.5865 195.201 66.5865Z" fill="black"/>
<path id="Vector_3" d="M71.603 17.398C71.603 18.8107 71.2291 19.9357 70.4803 20.7749C69.6296 21.7728 68.5211 22.2722 67.1582 22.2722C65.8531 22.2722 64.7435 21.7663 63.831 20.7532C62.9168 19.7408 62.4606 18.4854 62.4606 16.9876C62.4606 15.489 62.9168 14.2344 63.831 13.2212C64.7435 12.2089 65.8531 11.7023 67.1582 11.7023C67.8058 11.7023 68.4258 11.844 69.0145 12.1266C69.6031 12.4099 70.0753 12.7859 70.4285 13.2568L69.6337 14.1466C69.0351 13.3464 68.2109 12.9465 67.1582 12.9465C66.2064 12.9465 65.3834 13.3208 64.6888 14.0696C63.9941 14.8193 63.6468 15.7914 63.6468 16.9876C63.6468 18.1838 63.9941 19.1558 64.6888 19.9056C65.3834 20.6544 66.2064 21.0286 67.1582 21.0286C68.168 21.0286 69.0098 20.6524 69.6838 19.899C70.1213 19.4081 70.3743 18.7259 70.442 17.8497H67.1582V16.6345H71.5399C71.5823 16.8987 71.6029 17.1523 71.6029 17.398" fill="white"/>
<path id="Vector_4" d="M71.6025 17.3979H71.4518C71.4506 18.7784 71.0902 19.8507 70.3731 20.6557L70.3716 20.657L70.3709 20.6584C69.5473 21.6219 68.4887 22.1014 67.1577 22.1035C65.8874 22.1014 64.8242 21.6166 63.9364 20.6339C63.0505 19.6492 62.6125 18.447 62.6108 16.9875C62.6125 15.5272 63.0505 14.3258 63.9364 13.3417C64.8242 12.3583 65.8874 11.8728 67.1577 11.8708C67.7859 11.8708 68.384 12.008 68.9544 12.2812C69.5254 12.5566 69.9765 12.9175 70.3126 13.3655L70.428 13.2567L70.3215 13.1375L69.5266 14.0279L69.6332 14.1465L69.7492 14.0386C69.1227 13.1987 68.2434 12.7753 67.1577 12.7778C66.1706 12.7765 65.3023 13.1712 64.584 13.9485C63.8588 14.7283 63.4944 15.7551 63.4956 16.9875C63.4944 18.2199 63.8588 19.2467 64.584 20.0266C65.3023 20.8039 66.1706 21.1985 67.1577 21.1971C68.2009 21.1992 69.0899 20.8032 69.7898 20.0181C70.2572 19.4937 70.5222 18.7673 70.5917 17.8641L70.6057 17.681H67.3084V16.803H71.5394V16.6344L71.391 16.664C71.4323 16.9197 71.4517 17.1627 71.4517 17.3979H71.7531C71.7531 17.1416 71.7319 16.8782 71.6877 16.6042L71.6654 16.4658H67.0071V18.0183H70.4415V17.8497L70.2914 17.8352C70.2249 18.6836 69.9835 19.3226 69.5767 19.7798C68.9292 20.5016 68.1344 20.8578 67.1577 20.8599C66.2412 20.8585 65.4636 20.5054 64.7931 19.7842C64.129 19.0656 63.7987 18.1481 63.797 16.9875C63.7987 15.8269 64.129 14.9094 64.7931 14.1907C65.4636 13.4695 66.2412 13.1164 67.1577 13.1151C68.1768 13.1178 68.9463 13.4945 69.518 14.2553L69.6239 14.3963L70.5346 13.376L70.6323 13.2667L70.5434 13.1486C70.1731 12.6548 69.6798 12.2627 69.0734 11.9717C68.4659 11.6798 67.8248 11.5336 67.1577 11.5336C65.818 11.5323 64.6618 12.0592 63.724 13.102C62.7827 14.1427 62.3082 15.4508 62.3095 16.9875C62.3082 18.5234 62.7827 19.8324 63.7246 20.8737C64.6618 21.9158 65.818 22.4421 67.1577 22.4407C68.553 22.4421 69.7104 21.9236 70.5887 20.8914L70.4797 20.7749L70.5863 20.8941C71.3669 20.0214 71.7542 18.8423 71.7532 17.3979H71.6025H71.6025ZM78.5489 13.1718H74.4311V16.3796H78.1446V17.5953H74.4311V20.8032H78.5489V22.0461H73.2702V11.9289H78.5489V13.1718Z" fill="white"/>
<path id="Vector_5" d="M78.5489 13.1717V13.003H74.2803V16.5481H77.9938V17.4262L74.2803 17.4266V20.9717H78.3981V21.8774H73.4209V12.0974H78.3981V13.1717H78.5489V13.003V13.1717H78.6995V11.7601H73.1194V22.2146H78.6995V20.6345H74.5817V17.7638H78.2952V16.2109H74.5817V13.3403H78.6995V13.1717H78.5489ZM83.4485 22.0461H82.2859V13.1716H79.7603V11.9287H85.9741V13.1716H83.4485V22.0459" fill="white"/>
<path id="Vector_6" d="M83.4489 22.0461V21.8774H82.4369V13.003H79.9115V12.0974H85.8237V13.003H83.2982V22.046H83.4489V21.8774V22.046H83.5996V13.3403H86.1251V11.7601H79.61V13.3402H82.1355V22.2145H83.5996V22.0459H83.4489V22.0461ZM90.4702 22.0461V11.9287H91.6317V22.0459H90.4702" fill="white"/>
<path id="Vector_7" d="M90.4701 22.0461H90.6208V12.0974H91.4808V21.8774H90.4701V22.046H90.6208H90.4701V22.2146H91.7823V11.7601H90.3194V22.2146H90.4701V22.046V22.0461ZM96.7855 22.0461H95.6229V13.1716H93.0975V11.9287H99.311V13.1716H96.7855V22.0459" fill="white"/>
<path id="Vector_8" d="M96.7859 22.0463V21.8776H95.7739V13.0032H93.2486V12.0976H99.1607V13.0032H96.6352V22.0462H96.7859V21.8776V22.0462H96.9366V13.3405H99.4621V11.7603H92.9471V13.3404H95.4725V22.2147H96.9366V22.0461H96.7859V22.0463ZM105.302 19.8918C105.971 20.6498 106.79 21.0285 107.759 21.0285C108.727 21.0285 109.546 20.6498 110.215 19.8918C110.884 19.1336 111.22 18.1645 111.22 16.9876C111.22 15.8107 110.884 14.8416 110.215 14.0834C109.546 13.3253 108.727 12.9465 107.759 12.9465C106.79 12.9465 105.971 13.3253 105.302 14.0834C104.634 14.8416 104.298 15.8106 104.298 16.9876C104.298 18.1645 104.634 19.1336 105.302 19.8918ZM111.074 20.7387C110.185 21.7616 109.08 22.2722 107.759 22.2722C106.436 22.2722 105.331 21.7616 104.444 20.7387C103.555 19.717 103.112 18.4664 103.112 16.9876C103.112 15.5087 103.555 14.2579 104.444 13.2364C105.331 12.2133 106.436 11.7023 107.759 11.7023C109.073 11.7023 110.175 12.2161 111.068 13.243C111.96 14.2699 112.406 15.518 112.406 16.9876C112.406 18.4664 111.961 19.717 111.074 20.7387Z" fill="white"/>
<path id="Vector_9" d="M105.301 19.8917L105.194 20.0102C105.888 20.7987 106.754 21.1992 107.758 21.1971C108.761 21.1992 109.628 20.7987 110.321 20.0102C111.02 19.221 111.371 18.2001 111.37 16.9875C111.371 15.775 111.02 14.7539 110.321 13.9647C109.628 13.1763 108.761 12.7759 107.758 12.7778C106.754 12.7759 105.888 13.1763 105.194 13.9647C104.497 14.7539 104.145 15.775 104.147 16.9875C104.145 18.2 104.497 19.221 105.194 20.0102L105.301 19.8917L105.408 19.7731C104.769 19.0452 104.449 18.1296 104.448 16.9875C104.449 15.8454 104.769 14.9298 105.408 14.2019C106.053 13.4741 106.824 13.1171 107.758 13.1152C108.691 13.1171 109.463 13.4741 110.107 14.2019C110.747 14.9298 111.067 15.8454 111.068 16.9875C111.067 18.1295 110.747 19.0452 110.107 19.7731C109.463 20.5009 108.691 20.8578 107.758 20.8598C106.824 20.8578 106.053 20.5009 105.408 19.7731L105.301 19.8917ZM111.073 20.7386L110.965 20.6215C110.101 21.6121 109.045 22.1015 107.758 22.1035C106.47 22.1014 105.414 21.6121 104.551 20.6215L104.547 20.6162L104.551 20.6215C103.689 19.6274 103.263 18.4287 103.262 16.9875C103.263 15.5463 103.689 14.3475 104.551 13.3536C105.414 12.3629 106.47 11.8729 107.758 11.8709C109.036 11.8729 110.091 12.3649 110.96 13.3608C111.825 14.3593 112.253 15.5562 112.255 16.9875C112.253 18.4287 111.826 19.6274 110.965 20.6215L111.073 20.7386L111.182 20.8558C112.095 19.806 112.557 18.5037 112.556 16.9875C112.557 15.4799 112.093 14.1803 111.176 13.1258C110.257 12.0671 109.107 11.5318 107.758 11.5336C106.401 11.5318 105.248 12.0646 104.335 13.1192V13.1184C103.42 14.169 102.959 15.4712 102.961 16.9875C102.959 18.5037 103.42 19.806 104.335 20.8565L104.339 20.8613L104.335 20.8558C105.248 21.9104 106.401 22.4421 107.758 22.4407C109.113 22.4421 110.267 21.9104 111.182 20.8558L111.073 20.7386ZM114.036 22.0462V11.9288H115.45L119.845 19.7993H119.895L119.845 17.8496V11.9288H121.007V22.046H119.795L115.197 13.7941H115.147L115.197 15.7445V22.046H114.036" fill="white"/>
<path id="Vector_10" d="M114.036 22.0461H114.187V12.0974H115.367L119.761 19.9679H120.05L119.996 17.8471V12.0974H120.857V21.8774H119.879L115.281 13.6254H114.993L115.047 15.7472V21.8774H114.037V22.046H114.187H114.037V22.2146H115.348V15.7418L115.298 13.7895L115.147 13.7941V13.9627H115.197V13.7941L115.07 13.8837L119.711 22.2146H121.158V11.7601H119.694V17.8515L119.744 19.8038L119.895 19.7993V19.6307H119.845V19.7993L119.973 19.7098L115.534 11.7601H113.886V22.2146H114.037V22.046L114.036 22.0461ZM161.298 50.7116H164.111V29.632H161.298L161.298 50.7116ZM186.627 37.2254L183.404 46.3644H183.307L179.962 37.2253H176.932L181.949 49.9989L179.089 57.1041H182.023L189.754 37.2253L186.627 37.2254ZM170.68 48.3174C169.757 48.3174 168.473 47.8022 168.473 46.5271C168.473 44.9001 170.074 44.2764 171.454 44.2764C172.692 44.2764 173.272 44.5747 174.024 44.9819C173.805 46.9342 172.303 48.3174 170.68 48.3174ZM171.019 36.7642C168.983 36.7642 166.874 37.7679 166.002 39.9917L168.497 41.1576C169.031 39.9917 170.024 39.6116 171.067 39.6116C172.521 39.6116 174 40.5884 174.024 42.3241V42.5408C173.514 42.2153 172.425 41.7273 171.091 41.7273C168.401 41.7273 165.661 43.3812 165.661 46.473C165.661 49.2936 167.868 51.1108 170.339 51.1108C172.231 51.1108 173.272 50.1616 173.927 49.0499H174.024V50.6768H176.738V42.5947C176.738 38.8529 174.242 36.7642 171.019 36.7642ZM153.64 39.7914H149.64V32.5658H153.64C155.742 32.5658 156.936 34.5134 156.936 36.1785C156.936 37.8121 155.742 39.7914 153.64 39.7914ZM153.567 29.632H146.829V50.7116H149.64V42.7252H153.567C156.684 42.7252 159.748 40.2004 159.748 36.1785C159.748 32.1567 156.684 29.632 153.567 29.632ZM116.824 48.3213C114.881 48.3213 113.255 46.5014 113.255 44.0017C113.255 41.4758 114.881 39.6281 116.824 39.6281C118.742 39.6281 120.247 41.4757 120.247 44.0017C120.247 46.5014 118.742 48.3213 116.824 48.3213H116.824ZM120.053 38.4057H119.956C119.325 37.5637 118.11 36.8031 116.581 36.8031C113.376 36.8031 110.438 39.9541 110.438 44.0017C110.438 48.0223 113.376 51.1464 116.581 51.1464C118.11 51.1464 119.325 50.3855 119.956 49.5168H120.053V50.5489C120.053 53.2931 118.742 54.7599 116.63 54.7599C114.906 54.7599 113.838 53.374 113.4 52.2061L110.948 53.347C111.652 55.2485 113.522 57.585 116.63 57.585C119.932 57.585 122.724 55.4113 122.724 50.1142V37.2378H120.053V38.4057ZM124.666 50.7116H127.482V29.6312H124.666V50.7116ZM131.634 43.7574C131.561 40.9862 133.552 39.574 134.984 39.574C136.102 39.574 137.048 40.1985 137.363 41.0957L131.634 43.7574ZM140.375 41.367C139.841 39.7637 138.213 36.8031 134.887 36.8031C131.585 36.8031 128.842 39.7097 128.842 43.9747C128.842 47.9953 131.561 51.1464 135.203 51.1464C138.141 51.1464 139.841 49.136 140.545 47.9681L138.36 46.3379C137.632 47.5334 136.636 48.3213 135.203 48.3213C133.771 48.3213 132.751 47.5876 132.095 46.1482L140.665 42.1818L140.375 41.367ZM72.093 39.0036V42.046H78.5997C78.4055 43.7574 77.8956 45.0069 77.1185 45.8762C76.172 46.9361 74.6909 48.1039 72.093 48.1039C68.0868 48.1039 64.9551 44.491 64.9551 40.0087C64.9551 35.5265 68.0868 31.9131 72.093 31.9131C74.254 31.9131 75.8317 32.8641 76.9972 34.0865L78.9153 31.9407C77.2887 30.2017 75.1276 28.8707 72.093 28.8707C66.6057 28.8707 61.9928 33.8693 61.9928 40.0087C61.9928 46.1482 66.6057 51.1464 72.093 51.1464C75.0553 51.1464 77.2887 50.0603 79.0366 48.0223C80.8333 46.012 81.392 43.1869 81.392 40.9053C81.392 40.1985 81.3436 39.547 81.2459 39.0036H72.093ZM88.7894 48.3213C86.8467 48.3213 85.1713 46.5283 85.1713 43.9747C85.1713 41.3939 86.8467 39.6281 88.7894 39.6281C90.7314 39.6281 92.4068 41.3939 92.4068 43.9747C92.4068 46.5283 90.7314 48.3213 88.7894 48.3213ZM88.7894 36.8031C85.2442 36.8031 82.3549 39.8183 82.3549 43.9747C82.3549 48.1039 85.2442 51.1464 88.7894 51.1464C92.3338 51.1464 95.2231 48.1039 95.2231 43.9747C95.2231 39.8183 92.3338 36.8031 88.7894 36.8031ZM102.825 48.3213C100.883 48.3213 99.2073 46.5283 99.2073 43.9747C99.2073 41.3939 100.883 39.6281 102.825 39.6281C104.767 39.6281 106.442 41.3939 106.442 43.9747C106.442 46.5283 104.767 48.3213 102.825 48.3213H102.825ZM102.825 36.8031C99.2798 36.8031 96.3911 39.8183 96.3911 43.9747C96.3911 48.1039 99.2798 51.1464 102.825 51.1464C106.369 51.1464 109.259 48.1039 109.259 43.9747C109.259 39.8183 106.369 36.8031 102.825 36.8031H102.825Z" fill="white"/>
<path id="Vector_11" d="M15.9781 12.96C15.4724 13.4705 15.1705 14.3221 15.1705 15.4525V15.1969V52.4978V52.2521C15.1705 53.296 15.4294 54.1022 15.8679 54.6214L15.9799 54.7412V54.7418C16.3348 55.1001 16.7899 55.2904 17.3116 55.2898C17.8212 55.2898 18.3947 55.108 18.9999 54.7241L40.875 40.8174L48.3889 36.04C49.3432 35.4335 49.8789 34.6509 49.9685 33.8539V33.8506C49.8789 33.0517 49.3432 32.2698 48.389 31.6631L40.8744 26.8864L19 12.9797C18.3935 12.5951 17.8196 12.4126 17.3086 12.4126C16.7876 12.4126 16.333 12.6023 15.9782 12.96H15.9781Z" fill="#00C1FF"/>
<path id="Vector_12" d="M15.9799 54.7407L15.8679 54.6208C15.4294 54.1017 15.1705 53.2955 15.1705 52.2516V52.4973V15.2056V15.4519C15.1705 14.3216 15.4724 13.47 15.9781 12.9595L34.6501 33.8508L15.9799 54.7407Z" fill="url(#paint0_linear_1058_1828)"/>
<path id="Vector_13" d="M40.8751 40.8173L34.6502 33.8512L40.8745 26.8863L48.3891 31.663C49.3433 32.2697 49.879 33.0515 49.9686 33.8505V33.8537C49.879 34.6508 49.3433 35.4334 48.3891 36.0399L40.8751 40.8172" fill="url(#paint1_linear_1058_1828)"/>
<path id="Vector_14" d="M17.3116 55.2894C16.79 55.29 16.3349 55.0996 15.98 54.7413V54.7408L34.6502 33.8508L40.8751 40.8169L18.9999 54.7236C18.3947 55.1076 17.8213 55.2894 17.3116 55.2894Z" fill="url(#paint2_linear_1058_1828)"/>
<path id="Vector_15" d="M34.6501 33.8514L15.978 12.9601C16.3329 12.6024 16.7874 12.4128 17.3084 12.4128C17.8194 12.4128 18.3933 12.5952 18.9998 12.9798L40.8743 26.8865L34.65 33.8514" fill="url(#paint3_linear_1058_1828)"/>
<path id="Vector_16" d="M17.3121 55.5371C16.7906 55.5371 16.3348 55.3467 15.9799 54.9884L15.9793 54.9891C15.9778 54.9874 15.9763 54.9859 15.9746 54.9845L15.8775 54.8784C15.8745 54.8751 15.8716 54.8712 15.868 54.8673L15.98 54.7421C16.3349 55.1004 16.79 55.2907 17.3117 55.2901C17.8213 55.2901 18.3947 55.1083 18.9999 54.7243L40.875 40.8177L41.0152 40.9745L40.8732 41.0647L18.9999 54.9706C18.4483 55.3204 17.9237 55.5029 17.4499 55.5332C17.404 55.5358 17.3581 55.537 17.3121 55.537" fill="url(#paint4_linear_1058_1828)"/>
<path id="Vector_17" d="M15.8679 54.8665C15.4294 54.3473 15.1705 53.5418 15.1705 52.4972V52.2515C15.1705 53.2954 15.4294 54.1016 15.8679 54.6208L15.9799 54.7407L15.8679 54.8665Z" fill="url(#paint5_linear_1058_1828)"/>
<path id="Vector_18" d="M41.0148 40.9731L40.8746 40.8162L48.3886 36.0389C49.3429 35.4324 49.8786 34.6498 49.9682 33.8527C49.9682 34.1452 49.9098 34.4377 49.7939 34.7223C49.5602 35.296 49.0917 35.8381 48.3886 36.2852L41.0148 40.9731" fill="url(#paint6_linear_1058_1828)"/>
<path id="Vector_19" d="M49.9682 33.851C49.8787 33.052 49.343 32.2701 48.3887 31.6634L40.8741 26.8867L41.0143 26.7298H41.0149L48.3887 31.4177C49.4408 32.087 49.9676 32.9688 49.9682 33.851Z" fill="url(#paint7_linear_1058_1828)"/>
<path id="Vector_20" d="M15.1705 15.452V15.1944C15.1705 15.1015 15.1727 15.0106 15.177 14.9224V14.9184C15.177 14.9172 15.177 14.9159 15.1774 14.9145V14.9046C15.2228 14.0054 15.4724 13.304 15.8679 12.8357L15.9781 12.9595C15.4724 13.4701 15.1705 14.3217 15.1705 15.452Z" fill="url(#paint8_linear_1058_1828)"/>
<path id="Vector_21" d="M40.8744 26.8862L18.9999 12.9794C18.3935 12.5948 17.8197 12.4124 17.3086 12.4124C16.7876 12.4124 16.3331 12.6021 15.9782 12.9598L15.868 12.8359C15.9024 12.7952 15.9382 12.7559 15.9752 12.7181C15.9764 12.7167 15.9782 12.7154 15.9794 12.7141C16.3315 12.3591 16.7812 12.1694 17.2975 12.166H17.3086C17.8197 12.166 18.3935 12.3485 18.9999 12.7333L41.0152 26.7288L41.0146 26.7294L40.8744 26.8862Z" fill="url(#paint9_linear_1058_1828)"/>
</g>
<defs>
<linearGradient id="paint0_linear_1058_1828" x1="27.103" y1="14.8115" x2="9.23444" y2="30.833" gradientUnits="userSpaceOnUse">
<stop stop-color="#00A0FF"/>
<stop offset="0.00657" stop-color="#00A1FF"/>
<stop offset="0.2601" stop-color="#00BEFF"/>
<stop offset="0.5122" stop-color="#00D2FF"/>
<stop offset="0.7604" stop-color="#00DFFF"/>
<stop offset="1" stop-color="#00E3FF"/>
</linearGradient>
<linearGradient id="paint1_linear_1058_1828" x1="51.1312" y1="33.7308" x2="14.6652" y2="33.7308" gradientUnits="userSpaceOnUse">
<stop stop-color="#FFE000"/>
<stop offset="0.4087" stop-color="#FFBD00"/>
<stop offset="0.7754" stop-color="#FFA500"/>
<stop offset="1" stop-color="#FF9C00"/>
</linearGradient>
<linearGradient id="paint2_linear_1058_1828" x1="37.5702" y1="40.4739" x2="7.31503" y2="67.4036" gradientUnits="userSpaceOnUse">
<stop stop-color="#FF3A44"/>
<stop offset="1" stop-color="#C31162"/>
</linearGradient>
<linearGradient id="paint3_linear_1058_1828" x1="11.1656" y1="9.86289" x2="24.652" y2="21.8853" gradientUnits="userSpaceOnUse">
<stop stop-color="#32A071"/>
<stop offset="0.0685" stop-color="#2DA771"/>
<stop offset="0.4762" stop-color="#15CF74"/>
<stop offset="0.8009" stop-color="#06E775"/>
<stop offset="1" stop-color="#00F076"/>
</linearGradient>
<linearGradient id="paint4_linear_1058_1828" x1="37.5566" y1="45.3067" x2="13.3071" y2="67.0497" gradientUnits="userSpaceOnUse">
<stop stop-color="#CC2E36"/>
<stop offset="1" stop-color="#9C0E4E"/>
</linearGradient>
<linearGradient id="paint5_linear_1058_1828" x1="17.6579" y1="14.8114" x2="1.91587" y2="28.9264" gradientUnits="userSpaceOnUse">
<stop stop-color="#008DE0"/>
<stop offset="0.00657" stop-color="#008DE0"/>
<stop offset="0.2601" stop-color="#00A7E0"/>
<stop offset="0.5122" stop-color="#00B8E0"/>
<stop offset="0.7604" stop-color="#00C4E0"/>
<stop offset="1" stop-color="#00C7E0"/>
</linearGradient>
<linearGradient id="paint6_linear_1058_1828" x1="51.1309" y1="33.8512" x2="14.6648" y2="33.8512" gradientUnits="userSpaceOnUse">
<stop stop-color="#E0C500"/>
<stop offset="0.4087" stop-color="#E0A600"/>
<stop offset="0.7754" stop-color="#E09100"/>
<stop offset="1" stop-color="#E08900"/>
</linearGradient>
<linearGradient id="paint7_linear_1058_1828" x1="51.1309" y1="33.8526" x2="14.665" y2="33.8526" gradientUnits="userSpaceOnUse">
<stop stop-color="#FFE840"/>
<stop offset="0.4087" stop-color="#FFCE40"/>
<stop offset="0.7754" stop-color="#FFBC40"/>
<stop offset="1" stop-color="#FFB540"/>
</linearGradient>
<linearGradient id="paint8_linear_1058_1828" x1="17.6425" y1="14.8402" x2="2.55383" y2="27.7832" gradientUnits="userSpaceOnUse">
<stop stop-color="#40B8FF"/>
<stop offset="0.00657" stop-color="#40B9FF"/>
<stop offset="0.2601" stop-color="#40CEFF"/>
<stop offset="0.5122" stop-color="#40DDFF"/>
<stop offset="0.7604" stop-color="#40E7FF"/>
<stop offset="1" stop-color="#40EAFF"/>
</linearGradient>
<linearGradient id="paint9_linear_1058_1828" x1="11.1386" y1="14.2807" x2="21.9671" y2="23.99" gradientUnits="userSpaceOnUse">
<stop stop-color="#65B895"/>
<stop offset="0.0685" stop-color="#62BD95"/>
<stop offset="0.4762" stop-color="#50DB97"/>
<stop offset="0.8009" stop-color="#44ED98"/>
<stop offset="1" stop-color="#40F498"/>
</linearGradient>
</defs>
</svg>
