<svg width="363" height="249" viewBox="0 0 363 249" fill="none" xmlns="http://www.w3.org/2000/svg">
<g id="Google download button">
<g id="Vector" filter="url(#filter0_dddddd_1086_10)">
<path d="M274.556 2H87.4829C83.3674 2 80 5.76764 80 10.3726V60.6077C80 65.2127 83.3673 68.9803 87.4829 68.9803H274.556C278.672 68.9803 282.039 65.2127 282.039 60.6078V10.3726C282.039 5.76764 278.672 2 274.556 2Z" fill="#383A47"/>
<path fill-rule="evenodd" clip-rule="evenodd" d="M87.4829 2H274.556C278.672 2 282.039 5.76764 282.039 10.3726V60.6078C282.039 65.2127 278.672 68.9803 274.556 68.9803H87.4829C83.3673 68.9803 80 65.2127 80 60.6077V10.3726C80 5.76764 83.3674 2 87.4829 2Z" fill="#383A47"/>
</g>
<path id="Vector_2" d="M273.706 68H88.3729C84.3396 68 81.0396 64.3438 81.0396 59.875V11.125C81.0396 6.65624 84.3395 3 88.3729 3H273.706C277.74 3 281.04 6.65624 281.04 11.125V59.875C281.04 64.3438 277.74 68 273.706 68Z" fill="#383A47"/>
<path id="Vector_3" d="M150.966 19.1528C150.966 20.5557 150.594 21.6729 149.851 22.5063C149.006 23.4973 147.905 23.9931 146.552 23.9931C145.256 23.9931 144.154 23.4908 143.248 22.4847C142.34 21.4793 141.887 20.2326 141.887 18.7452C141.887 17.2571 142.34 16.0111 143.248 15.0049C144.154 13.9997 145.256 13.4966 146.552 13.4966C147.195 13.4966 147.811 13.6373 148.395 13.9179C148.98 14.1993 149.449 14.5727 149.799 15.0403L149.01 15.924C148.416 15.1293 147.597 14.7322 146.552 14.7322C145.607 14.7322 144.789 15.1038 144.099 15.8475C143.41 16.592 143.065 17.5573 143.065 18.7452C143.065 19.9331 143.41 20.8984 144.099 21.6429C144.789 22.3866 145.606 22.7582 146.552 22.7582C147.554 22.7582 148.39 22.3846 149.06 21.6364C149.494 21.149 149.745 20.4714 149.813 19.6014H146.552V18.3946H150.903C150.945 18.657 150.966 18.9088 150.966 19.1528" fill="white"/>
<path id="Vector_4" d="M150.966 19.1527H150.816C150.815 20.5237 150.457 21.5885 149.745 22.3879L149.743 22.3892L149.743 22.3906C148.925 23.3474 147.873 23.8236 146.552 23.8256C145.29 23.8236 144.234 23.3422 143.353 22.3663C142.473 21.3884 142.038 20.1946 142.036 18.7452C142.038 17.295 142.473 16.1019 143.353 15.1247C144.234 14.1481 145.29 13.666 146.552 13.664C147.176 13.664 147.77 13.8002 148.336 14.0716C148.903 14.3451 149.351 14.7034 149.685 15.1484L149.799 15.0403L149.694 14.9219L148.904 15.8062L149.01 15.9239L149.125 15.8168C148.503 14.9827 147.63 14.5623 146.552 14.5647C145.571 14.5634 144.709 14.9553 143.996 15.7272C143.276 16.5016 142.914 17.5213 142.915 18.7452C142.914 19.9691 143.276 20.9887 143.996 21.7632C144.709 22.5351 145.571 22.9269 146.552 22.9256C147.588 22.9276 148.471 22.5344 149.166 21.7547C149.63 21.234 149.893 20.5126 149.962 19.6157L149.976 19.4339H146.701V18.562H150.903V18.3945L150.756 18.424C150.797 18.6779 150.816 18.9192 150.816 19.1527H151.115C151.115 18.8982 151.094 18.6366 151.05 18.3646L151.028 18.2271H146.402V19.7688H149.813V19.6014L149.664 19.587C149.598 20.4295 149.358 21.064 148.954 21.5181C148.311 22.2349 147.522 22.5887 146.552 22.5907C145.642 22.5893 144.869 22.2387 144.203 21.5225C143.544 20.8088 143.216 19.8977 143.214 18.7452C143.216 17.5926 143.544 16.6815 144.203 15.9678C144.869 15.2516 145.642 14.901 146.552 14.8996C147.564 14.9023 148.328 15.2764 148.896 16.0319L149.001 16.1719L149.905 15.1587L150.002 15.0502L149.914 14.933C149.546 14.4425 149.056 14.0532 148.454 13.7642C147.851 13.4743 147.214 13.3291 146.552 13.3291C145.221 13.3278 144.073 13.8511 143.142 14.8866C142.207 15.9201 141.736 17.2192 141.737 18.7452C141.736 20.2705 142.207 21.5703 143.142 22.6044C144.073 23.6392 145.221 24.1619 146.552 24.1605C147.937 24.1619 149.087 23.647 149.959 22.622L149.851 22.5062L149.957 22.6247C150.732 21.758 151.116 20.5871 151.115 19.1527H150.966H150.966ZM157.864 14.9559H153.775V18.1415H157.462V19.3488H153.775V22.5344H157.864V23.7687H152.622V13.7216H157.864V14.9559Z" fill="white"/>
<path id="Vector_5" d="M157.864 14.9559V14.7885H153.625V18.309H157.313V19.1809L153.625 19.1813V22.7018H157.714V23.6012H152.771V13.8891H157.714V14.9559H157.864V14.7885V14.9559H158.013V13.5542H152.472V23.9361H158.013V22.367H153.924V19.5162H157.612V17.9741H153.924V15.1234H158.013V14.9559H157.864ZM162.729 23.7688H161.575V14.9559H159.067V13.7216H165.237V14.9559H162.729V23.7686" fill="white"/>
<path id="Vector_6" d="M162.73 23.7688V23.6012H161.725V14.7885H159.217V13.8892H165.088V14.7885H162.58V23.7687H162.73V23.6012V23.7687H162.879V15.1234H165.387V13.5542H158.917V15.1233H161.425V23.936H162.879V23.7686H162.73V23.7688ZM169.702 23.7688V13.7216H170.856V23.7686H169.702" fill="white"/>
<path id="Vector_7" d="M169.702 23.7688H169.852V13.8891H170.706V23.6012H169.702V23.7687H169.852H169.702V23.9361H171.005V13.5542H169.552V23.9361H169.702V23.7687V23.7688ZM175.974 23.7688H174.819V14.9559H172.311V13.7216H178.482V14.9559H175.974V23.7686" fill="white"/>
<path id="Vector_8" d="M175.974 23.7688V23.6013H174.969V14.7885H172.461V13.8892H178.332V14.7885H175.824V23.7687H175.974V23.6013V23.7687H176.124V15.1234H178.631V13.5542H172.162V15.1233H174.67V23.9361H176.124V23.7686H175.974V23.7688ZM184.431 21.6292C185.095 22.382 185.909 22.7581 186.87 22.7581C187.832 22.7581 188.646 22.382 189.309 21.6292C189.975 20.8764 190.308 19.914 190.308 18.7452C190.308 17.5765 189.975 16.6141 189.309 15.8612C188.646 15.1083 187.832 14.7322 186.87 14.7322C185.909 14.7322 185.095 15.1083 184.431 15.8612C183.767 16.6141 183.434 17.5764 183.434 18.7452C183.434 19.914 183.767 20.8764 184.431 21.6292ZM190.163 22.4703C189.28 23.486 188.182 23.9931 186.87 23.9931C185.557 23.9931 184.46 23.486 183.579 22.4703C182.696 21.4557 182.256 20.2137 182.256 18.7452C182.256 17.2766 182.696 16.0345 183.579 15.0201C184.46 14.0041 185.557 13.4966 186.87 13.4966C188.175 13.4966 189.27 14.0068 190.157 15.0266C191.043 16.0463 191.486 17.2858 191.486 18.7452C191.486 20.2137 191.044 21.4557 190.163 22.4703Z" fill="white"/>
<path id="Vector_9" d="M184.431 21.6292L184.324 21.7469C185.014 22.5299 185.873 22.9276 186.87 22.9256C187.866 22.9276 188.727 22.5299 189.416 21.7469C190.109 20.9632 190.458 19.9493 190.457 18.7452C190.458 17.5411 190.109 16.5271 189.416 15.7434C188.727 14.9604 187.866 14.5628 186.87 14.5647C185.873 14.5628 185.014 14.9604 184.324 15.7434C183.632 16.5271 183.282 17.5411 183.284 18.7452C183.282 19.9493 183.632 20.9632 184.324 21.7469L184.431 21.6292L184.537 21.5114C183.902 20.7886 183.585 19.8794 183.584 18.7452C183.585 17.611 183.902 16.7018 184.537 15.9789C185.178 15.2562 185.943 14.9017 186.87 14.8997C187.797 14.9017 188.564 15.2562 189.203 15.9789C189.839 16.7018 190.156 17.611 190.157 18.7452C190.156 19.8793 189.839 20.7886 189.203 21.5114C188.564 22.2342 187.797 22.5887 186.87 22.5906C185.943 22.5887 185.178 22.2342 184.537 21.5114L184.431 21.6292ZM190.163 22.4703L190.056 22.3539C189.198 23.3377 188.148 23.8237 186.87 23.8256C185.592 23.8236 184.542 23.3377 183.686 22.3539L183.682 22.3487L183.686 22.3539C182.829 21.3668 182.407 20.1764 182.406 18.7452C182.407 17.3139 182.829 16.1235 183.686 15.1365C184.542 14.1526 185.592 13.666 186.87 13.6641C188.14 13.666 189.187 14.1547 190.05 15.1436C190.909 16.1353 191.334 17.3238 191.336 18.7452C191.334 20.1764 190.91 21.3668 190.056 22.3539L190.163 22.4703L190.27 22.5866C191.177 21.5441 191.636 20.2509 191.635 18.7452C191.636 17.248 191.176 15.9574 190.264 14.9102C189.352 13.8589 188.21 13.3273 186.87 13.3291C185.523 13.3273 184.377 13.8564 183.471 14.9037V14.9029C182.562 15.9462 182.105 17.2394 182.106 18.7452C182.105 20.2509 182.562 21.5441 183.471 22.5873L183.475 22.592L183.471 22.5866C184.377 23.6339 185.523 24.1619 186.87 24.1605C188.216 24.1619 189.362 23.6339 190.27 22.5866L190.163 22.4703ZM193.105 23.7688V13.7216H194.509L198.873 21.5375H198.923L198.873 19.6013V13.7216H200.028V23.7686H198.824L194.258 15.5739H194.208L194.258 17.5108V23.7686H193.105" fill="white"/>
<path id="Vector_10" d="M193.105 23.7688H193.255V13.8891H194.426L198.79 21.705H199.077L199.023 19.5989V13.8892H199.878V23.6012H198.907L194.341 15.4066H194.054L194.108 17.5136V23.6012H193.105V23.7687H193.255H193.105V23.9361H194.407V17.5082L194.358 15.5695L194.208 15.574V15.7415H194.258V15.574L194.131 15.663L198.741 23.9361H200.178V13.5542H198.724V19.6033L198.773 21.5421L198.923 21.5376V21.3701H198.873V21.5376L199 21.4487L194.592 13.5542H192.955V23.9361H193.105V23.7687L193.105 23.7688ZM240.039 52.2353H242.831V31.302H240.039L240.039 52.2353ZM265.192 38.8427L261.991 47.9183H261.895L258.572 38.8426H255.564L260.546 51.5275L257.706 58.5834H260.62L268.297 38.8426L265.192 38.8427ZM249.355 49.8577C248.439 49.8577 247.164 49.3462 247.164 48.0799C247.164 46.4641 248.753 45.8448 250.124 45.8448C251.353 45.8448 251.929 46.141 252.676 46.5454C252.459 48.4841 250.967 49.8577 249.355 49.8577ZM249.692 38.3847C247.67 38.3847 245.576 39.3815 244.71 41.5899L247.188 42.7476C247.718 41.5899 248.704 41.2124 249.74 41.2124C251.184 41.2124 252.652 42.1824 252.676 43.906V44.1213C252.17 43.798 251.088 43.3134 249.764 43.3134C247.092 43.3134 244.371 44.9558 244.371 48.0262C244.371 50.8271 246.562 52.6317 249.017 52.6317C250.895 52.6317 251.929 51.6891 252.58 50.5851H252.676V52.2007H255.371V44.1748C255.371 40.4589 252.893 38.3847 249.692 38.3847ZM232.433 41.3909H228.461V34.2155H232.433C234.521 34.2155 235.706 36.1496 235.706 37.8031C235.706 39.4253 234.521 41.3909 232.433 41.3909ZM232.361 31.302H225.67V52.2353H228.461V44.3044H232.361C235.456 44.3044 238.499 41.7971 238.499 37.8031C238.499 33.8092 235.456 31.302 232.361 31.302ZM195.873 49.8616C193.944 49.8616 192.329 48.0543 192.329 45.572C192.329 43.0636 193.944 41.2288 195.873 41.2288C197.778 41.2288 199.273 43.0635 199.273 45.572C199.273 48.0543 197.778 49.8616 195.873 49.8616H195.873ZM199.08 40.0148H198.983C198.356 39.1787 197.15 38.4234 195.632 38.4234C192.449 38.4234 189.532 41.5525 189.532 45.572C189.532 49.5647 192.449 52.6671 195.632 52.6671C197.15 52.6671 198.356 51.9115 198.983 51.0488H199.08V52.0738C199.08 54.7989 197.778 56.2555 195.68 56.2555C193.968 56.2555 192.907 54.8792 192.473 53.7195L190.038 54.8524C190.737 56.7408 192.594 59.061 195.68 59.061C198.959 59.061 201.732 56.9024 201.732 51.6421V38.855H199.08V40.0148ZM203.661 52.2353H206.457V31.3012H203.661V52.2353ZM210.58 45.3293C210.508 42.5774 212.485 41.175 213.907 41.175C215.017 41.175 215.957 41.7952 216.27 42.6862L210.58 45.3293ZM219.26 42.9555C218.73 41.3634 217.114 38.4234 213.811 38.4234C210.532 38.4234 207.808 41.3098 207.808 45.5452C207.808 49.5379 210.508 52.6671 214.124 52.6671C217.042 52.6671 218.73 50.6707 219.429 49.5109L217.259 47.892C216.536 49.0792 215.547 49.8616 214.124 49.8616C212.702 49.8616 211.69 49.133 211.038 47.7036L219.549 43.7647L219.26 42.9555ZM151.453 40.6086V43.6299H157.914C157.721 45.3293 157.215 46.5702 156.443 47.4335C155.503 48.486 154.032 49.6458 151.453 49.6458C147.474 49.6458 144.364 46.0579 144.364 41.6067C144.364 37.1556 147.474 33.5673 151.453 33.5673C153.599 33.5673 155.165 34.5117 156.323 35.7256L158.227 33.5947C156.612 31.8678 154.466 30.546 151.453 30.546C146.003 30.546 141.422 35.5099 141.422 41.6067C141.422 47.7036 146.003 52.6671 151.453 52.6671C154.394 52.6671 156.612 51.5885 158.348 49.5647C160.132 47.5683 160.687 44.7629 160.687 42.4971C160.687 41.7952 160.639 41.1482 160.542 40.6086H151.453ZM168.033 49.8616C166.104 49.8616 164.44 48.081 164.44 45.5452C164.44 42.9823 166.104 41.2288 168.033 41.2288C169.962 41.2288 171.625 42.9823 171.625 45.5452C171.625 48.0811 169.962 49.8616 168.033 49.8616ZM168.033 38.4234C164.513 38.4234 161.643 41.4177 161.643 45.5452C161.643 49.6458 164.513 52.6671 168.033 52.6671C171.553 52.6671 174.422 49.6458 174.422 45.5452C174.422 41.4177 171.553 38.4234 168.033 38.4234ZM181.971 49.8616C180.043 49.8616 178.379 48.081 178.379 45.5452C178.379 42.9823 180.043 41.2288 181.971 41.2288C183.9 41.2288 185.563 42.9823 185.563 45.5452C185.563 48.0811 183.9 49.8616 181.971 49.8616H181.971ZM181.971 38.4234C178.451 38.4234 175.582 41.4177 175.582 45.5452C175.582 49.6458 178.451 52.6671 181.971 52.6671C185.491 52.6671 188.36 49.6458 188.36 45.5452C188.36 41.4177 185.491 38.4234 181.971 38.4234H181.971Z" fill="white"/>
<path id="Vector_11" d="M95.727 14.7457C95.2247 15.2527 94.9249 16.0984 94.9249 17.2209V16.9671V54.0091V53.7651C94.9249 54.8018 95.1821 55.6024 95.6175 56.1179L95.7287 56.237V56.2375C96.0812 56.5934 96.5332 56.7824 97.0512 56.7818C97.5573 56.7818 98.1268 56.6012 98.7278 56.22L120.451 42.4098L127.913 37.6656C128.86 37.0632 129.392 36.2861 129.481 35.4946V35.4914C129.392 34.698 128.86 33.9215 127.913 33.3191L120.45 28.5754L98.7278 14.7653C98.1256 14.3834 97.5557 14.2021 97.0482 14.2021C96.5308 14.2021 96.0794 14.3905 95.7271 14.7457H95.727Z" fill="#00C1FF"/>
<path id="Vector_12" d="M95.7288 56.2363L95.6175 56.1173C95.1821 55.6018 94.9249 54.8011 94.9249 53.7645V54.0084V16.9757V17.2202C94.9249 16.0977 95.2247 15.2521 95.727 14.7451L114.269 35.4914L95.7288 56.2363Z" fill="url(#paint0_linear_1086_10)"/>
<path id="Vector_13" d="M120.451 42.4097L114.269 35.4919L120.45 28.5754L127.913 33.3189C128.86 33.9214 129.392 34.6978 129.481 35.4913V35.4944C129.392 36.286 128.86 37.0631 127.913 37.6654L120.451 42.4096" fill="url(#paint1_linear_1086_10)"/>
<path id="Vector_14" d="M97.0511 56.7812C96.5332 56.7818 96.0812 56.5927 95.7288 56.2369V56.2364L114.269 35.4914L120.451 42.4092L98.7277 56.2194C98.1268 56.6007 97.5573 56.7812 97.0511 56.7812Z" fill="url(#paint2_linear_1086_10)"/>
<path id="Vector_15" d="M114.269 35.4922L95.7269 14.7459C96.0793 14.3907 96.5307 14.2023 97.048 14.2023C97.5555 14.2023 98.1255 14.3834 98.7277 14.7654L120.45 28.5756L114.269 35.4922" fill="url(#paint3_linear_1086_10)"/>
<path id="Vector_16" d="M97.0519 57.0273C96.5339 57.0273 96.0814 56.8383 95.7289 56.4825L95.7283 56.4831C95.7268 56.4815 95.7253 56.48 95.7236 56.4786L95.6272 56.3732C95.6242 56.3699 95.6214 56.3661 95.6178 56.3622L95.729 56.2378C96.0814 56.5936 96.5333 56.7827 97.0514 56.782C97.5575 56.782 98.127 56.6015 98.728 56.2202L120.451 42.4101L120.59 42.5658L120.449 42.6554L98.7279 56.4648C98.1802 56.8122 97.6592 56.9933 97.1886 57.0235C97.1431 57.026 97.0975 57.0273 97.0519 57.0273" fill="url(#paint4_linear_1086_10)"/>
<path id="Vector_17" d="M95.6175 56.3613C95.1821 55.8458 94.9249 55.0458 94.9249 54.0085V53.7645C94.9249 54.8012 95.1821 55.6018 95.6175 56.1173L95.7287 56.2364L95.6175 56.3613Z" fill="url(#paint5_linear_1086_10)"/>
<path id="Vector_18" d="M120.59 42.5644L120.451 42.4086L127.913 37.6644C128.86 37.0622 129.392 36.285 129.481 35.4934C129.481 35.7839 129.423 36.0743 129.308 36.357C129.076 36.9267 128.611 37.465 127.913 37.9091L120.59 42.5645" fill="url(#paint6_linear_1086_10)"/>
<path id="Vector_19" d="M129.481 35.4917C129.392 34.6983 128.86 33.9219 127.913 33.3193L120.45 28.5758L120.59 28.42H120.59L127.913 33.0754C128.958 33.74 129.481 34.6157 129.481 35.4917Z" fill="url(#paint7_linear_1086_10)"/>
<path id="Vector_20" d="M94.9249 17.2202V16.9643C94.9249 16.8721 94.9271 16.7818 94.9314 16.6942V16.6903C94.9314 16.6891 94.9314 16.6878 94.9318 16.6864V16.6766C94.9769 15.7836 95.2247 15.0871 95.6175 14.6221L95.727 14.745C95.2247 15.252 94.9249 16.0977 94.9249 17.2202Z" fill="url(#paint8_linear_1086_10)"/>
<path id="Vector_21" d="M120.45 28.5752L98.7276 14.7649C98.1254 14.383 97.5556 14.2018 97.0481 14.2018C96.5307 14.2018 96.0793 14.3902 95.7269 14.7454L95.6175 14.6224C95.6517 14.582 95.6872 14.5429 95.7239 14.5054C95.7251 14.5041 95.7269 14.5027 95.728 14.5014C96.0777 14.1489 96.5243 13.9605 97.037 13.9572H97.0481C97.5556 13.9572 98.1254 14.1384 98.7276 14.5205L120.59 28.4189L120.589 28.4194L120.45 28.5752Z" fill="url(#paint9_linear_1086_10)"/>
</g>
<defs>
<filter id="filter0_dddddd_1086_10" x="0" y="0.703704" width="362.039" height="248.277" filterUnits="userSpaceOnUse" color-interpolation-filters="sRGB">
<feFlood flood-opacity="0" result="BackgroundImageFix"/>
<feColorMatrix in="SourceAlpha" type="matrix" values="0 0 0 0 0 0 0 0 0 0 0 0 0 0 0 0 0 0 127 0" result="hardAlpha"/>
<feOffset dy="1.85185"/>
<feGaussianBlur stdDeviation="1.57407"/>
<feColorMatrix type="matrix" values="0 0 0 0 0.219608 0 0 0 0 0.219608 0 0 0 0 0.219608 0 0 0 0.0240741 0"/>
<feBlend mode="normal" in2="BackgroundImageFix" result="effect1_dropShadow_1086_10"/>
<feColorMatrix in="SourceAlpha" type="matrix" values="0 0 0 0 0 0 0 0 0 0 0 0 0 0 0 0 0 0 127 0" result="hardAlpha"/>
<feOffset dy="8.14815"/>
<feGaussianBlur stdDeviation="3.25926"/>
<feColorMatrix type="matrix" values="0 0 0 0 0.219608 0 0 0 0 0.219608 0 0 0 0 0.219608 0 0 0 0.0392593 0"/>
<feBlend mode="normal" in2="effect1_dropShadow_1086_10" result="effect2_dropShadow_1086_10"/>
<feColorMatrix in="SourceAlpha" type="matrix" values="0 0 0 0 0 0 0 0 0 0 0 0 0 0 0 0 0 0 127 0" result="hardAlpha"/>
<feOffset dy="20"/>
<feGaussianBlur stdDeviation="6.5"/>
<feColorMatrix type="matrix" values="0 0 0 0 0.219608 0 0 0 0 0.219608 0 0 0 0 0.219608 0 0 0 0.05 0"/>
<feBlend mode="normal" in2="effect2_dropShadow_1086_10" result="effect3_dropShadow_1086_10"/>
<feColorMatrix in="SourceAlpha" type="matrix" values="0 0 0 0 0 0 0 0 0 0 0 0 0 0 0 0 0 0 127 0" result="hardAlpha"/>
<feOffset dy="38.5185"/>
<feGaussianBlur stdDeviation="12.7407"/>
<feColorMatrix type="matrix" values="0 0 0 0 0.219608 0 0 0 0 0.219608 0 0 0 0 0.219608 0 0 0 0.0607407 0"/>
<feBlend mode="normal" in2="effect3_dropShadow_1086_10" result="effect4_dropShadow_1086_10"/>
<feColorMatrix in="SourceAlpha" type="matrix" values="0 0 0 0 0 0 0 0 0 0 0 0 0 0 0 0 0 0 127 0" result="hardAlpha"/>
<feOffset dy="64.8148"/>
<feGaussianBlur stdDeviation="23.4259"/>
<feColorMatrix type="matrix" values="0 0 0 0 0.219608 0 0 0 0 0.219608 0 0 0 0 0.219608 0 0 0 0.0759259 0"/>
<feBlend mode="normal" in2="effect4_dropShadow_1086_10" result="effect5_dropShadow_1086_10"/>
<feColorMatrix in="SourceAlpha" type="matrix" values="0 0 0 0 0 0 0 0 0 0 0 0 0 0 0 0 0 0 127 0" result="hardAlpha"/>
<feOffset dy="100"/>
<feGaussianBlur stdDeviation="40"/>
<feColorMatrix type="matrix" values="0 0 0 0 0.219608 0 0 0 0 0.219608 0 0 0 0 0.219608 0 0 0 0.1 0"/>
<feBlend mode="normal" in2="effect5_dropShadow_1086_10" result="effect6_dropShadow_1086_10"/>
<feBlend mode="normal" in="SourceGraphic" in2="effect6_dropShadow_1086_10" result="shape"/>
</filter>
<linearGradient id="paint0_linear_1086_10" x1="106.775" y1="16.5843" x2="89.0301" y2="32.4946" gradientUnits="userSpaceOnUse">
<stop stop-color="#00A0FF"/>
<stop offset="0.00657" stop-color="#00A1FF"/>
<stop offset="0.2601" stop-color="#00BEFF"/>
<stop offset="0.5122" stop-color="#00D2FF"/>
<stop offset="0.7604" stop-color="#00DFFF"/>
<stop offset="1" stop-color="#00E3FF"/>
</linearGradient>
<linearGradient id="paint1_linear_1086_10" x1="130.636" y1="35.3724" x2="94.423" y2="35.3724" gradientUnits="userSpaceOnUse">
<stop stop-color="#FFE000"/>
<stop offset="0.4087" stop-color="#FFBD00"/>
<stop offset="0.7754" stop-color="#FFA500"/>
<stop offset="1" stop-color="#FF9C00"/>
</linearGradient>
<linearGradient id="paint2_linear_1086_10" x1="117.169" y1="42.0685" x2="87.124" y2="68.8113" gradientUnits="userSpaceOnUse">
<stop stop-color="#FF3A44"/>
<stop offset="1" stop-color="#C31162"/>
</linearGradient>
<linearGradient id="paint3_linear_1086_10" x1="90.948" y1="11.6701" x2="104.341" y2="23.6091" gradientUnits="userSpaceOnUse">
<stop stop-color="#32A071"/>
<stop offset="0.0685" stop-color="#2DA771"/>
<stop offset="0.4762" stop-color="#15CF74"/>
<stop offset="0.8009" stop-color="#06E775"/>
<stop offset="1" stop-color="#00F076"/>
</linearGradient>
<linearGradient id="paint4_linear_1086_10" x1="117.156" y1="46.8679" x2="93.0747" y2="68.4601" gradientUnits="userSpaceOnUse">
<stop stop-color="#CC2E36"/>
<stop offset="1" stop-color="#9C0E4E"/>
</linearGradient>
<linearGradient id="paint5_linear_1086_10" x1="97.3951" y1="16.5843" x2="81.7623" y2="30.6013" gradientUnits="userSpaceOnUse">
<stop stop-color="#008DE0"/>
<stop offset="0.00657" stop-color="#008DE0"/>
<stop offset="0.2601" stop-color="#00A7E0"/>
<stop offset="0.5122" stop-color="#00B8E0"/>
<stop offset="0.7604" stop-color="#00C4E0"/>
<stop offset="1" stop-color="#00C7E0"/>
</linearGradient>
<linearGradient id="paint6_linear_1086_10" x1="130.636" y1="35.4919" x2="94.423" y2="35.4919" gradientUnits="userSpaceOnUse">
<stop stop-color="#E0C500"/>
<stop offset="0.4087" stop-color="#E0A600"/>
<stop offset="0.7754" stop-color="#E09100"/>
<stop offset="1" stop-color="#E08900"/>
</linearGradient>
<linearGradient id="paint7_linear_1086_10" x1="130.636" y1="35.4933" x2="94.4231" y2="35.4933" gradientUnits="userSpaceOnUse">
<stop stop-color="#FFE840"/>
<stop offset="0.4087" stop-color="#FFCE40"/>
<stop offset="0.7754" stop-color="#FFBC40"/>
<stop offset="1" stop-color="#FFB540"/>
</linearGradient>
<linearGradient id="paint8_linear_1086_10" x1="97.3798" y1="16.6127" x2="82.3959" y2="29.4658" gradientUnits="userSpaceOnUse">
<stop stop-color="#40B8FF"/>
<stop offset="0.00657" stop-color="#40B9FF"/>
<stop offset="0.2601" stop-color="#40CEFF"/>
<stop offset="0.5122" stop-color="#40DDFF"/>
<stop offset="0.7604" stop-color="#40E7FF"/>
<stop offset="1" stop-color="#40EAFF"/>
</linearGradient>
<linearGradient id="paint9_linear_1086_10" x1="90.9209" y1="16.0571" x2="101.674" y2="25.699" gradientUnits="userSpaceOnUse">
<stop stop-color="#65B895"/>
<stop offset="0.0685" stop-color="#62BD95"/>
<stop offset="0.4762" stop-color="#50DB97"/>
<stop offset="0.8009" stop-color="#44ED98"/>
<stop offset="1" stop-color="#40F498"/>
</linearGradient>
</defs>
</svg>
